<svg width="23" height="24" viewBox="0 0 23 24" fill="none" xmlns="http://www.w3.org/2000/svg">
<g clip-path="url(#clip0_194_312)">
<path d="M11.5 24C11.5 24 20.125 15.471 20.125 9C20.125 6.61305 19.2163 4.32387 17.5988 2.63604C15.9813 0.948211 13.7875 0 11.5 0C9.21251 0 7.01871 0.948211 5.4012 2.63604C3.7837 4.32387 2.875 6.61305 2.875 9C2.875 15.471 11.5 24 11.5 24ZM11.5 13.5C10.3563 13.5 9.25935 13.0259 8.4506 12.182C7.64185 11.3381 7.1875 10.1935 7.1875 9C7.1875 7.80653 7.64185 6.66193 8.4506 5.81802C9.25935 4.97411 10.3563 4.5 11.5 4.5C12.6437 4.5 13.7406 4.97411 14.5494 5.81802C15.3581 6.66193 15.8125 7.80653 15.8125 9C15.8125 10.1935 15.3581 11.3381 14.5494 12.182C13.7406 13.0259 12.6437 13.5 11.5 13.5Z" fill="#1B6143"/>
</g>
<defs>
<clipPath id="clip0_194_312">
<rect width="23" height="24" fill="white"/>
</clipPath>
</defs>
</svg>
