<svg width="30" height="28" viewBox="0 0 30 28" fill="none" xmlns="http://www.w3.org/2000/svg">
<g clip-path="url(#clip0_194_331)">
<path d="M15.0956 3.49805H15.2625C16.8038 3.5033 24.6131 3.5558 26.7188 4.0843C27.3553 4.24559 27.9353 4.55999 28.4009 4.99606C28.8665 5.43214 29.2013 5.97462 29.3719 6.5693C29.5613 7.2343 29.6944 8.11455 29.7844 9.0228L29.8031 9.2048L29.8444 9.6598L29.8594 9.8418C29.9813 11.4413 29.9963 12.9393 29.9981 13.2665V13.3978C29.9963 13.7373 29.9794 15.3368 29.8444 17.0028L29.8294 17.1865L29.8125 17.3685C29.7188 18.3695 29.58 19.3635 29.3719 20.095C29.2018 20.69 28.8672 21.2327 28.4015 21.6689C27.9359 22.105 27.3556 22.4192 26.7188 22.58C24.5438 23.126 16.2769 23.1645 15.1312 23.1663H14.865C14.2856 23.1663 11.8894 23.1558 9.37687 23.0753L9.05812 23.0648L8.895 23.0578L8.57438 23.0455L8.25375 23.0333C6.1725 22.9475 4.19063 22.8093 3.2775 22.5783C2.64092 22.4176 2.06075 22.1037 1.59511 21.6678C1.12947 21.232 0.794713 20.6896 0.624375 20.095C0.41625 19.3653 0.2775 18.3695 0.18375 17.3685L0.16875 17.1848L0.15375 17.0028C0.0612142 15.817 0.00993725 14.6287 0 13.4398L0 13.2245C0.00375 12.8483 0.01875 11.548 0.12 10.113L0.133125 9.9328L0.13875 9.8418L0.15375 9.6598L0.195 9.2048L0.21375 9.0228C0.30375 8.11455 0.436875 7.23255 0.62625 6.5693C0.796301 5.97438 1.13093 5.43164 1.59659 4.99549C2.06225 4.55934 2.64257 4.24511 3.27937 4.0843C4.1925 3.8568 6.17437 3.7168 8.25562 3.6293L8.57438 3.61705L8.89687 3.60655L9.05812 3.6013L9.37875 3.58905C11.1632 3.53545 12.9484 3.5057 14.7337 3.4998H15.0956V3.49805ZM12 9.11555V17.547L19.7944 13.333L12 9.11555Z" fill="#1B6143"/>
</g>
<defs>
<clipPath id="clip0_194_331">
<rect width="30" height="28" fill="white"/>
</clipPath>
</defs>
</svg>
