<svg width="21" height="21" viewBox="0 0 21 21" fill="none" xmlns="http://www.w3.org/2000/svg">
<path d="M16.625 3.5H4.375C3.67881 3.5 3.01113 3.77656 2.51884 4.26884C2.02656 4.76113 1.75 5.42881 1.75 6.125V14.875C1.75 15.5712 2.02656 16.2389 2.51884 16.7312C3.01113 17.2234 3.67881 17.5 4.375 17.5H16.625C17.3212 17.5 17.9889 17.2234 18.4812 16.7312C18.9734 16.2389 19.25 15.5712 19.25 14.875V6.125C19.25 5.42881 18.9734 4.76113 18.4812 4.26884C17.9889 3.77656 17.3212 3.5 16.625 3.5ZM16.625 5.25L10.9375 9.16125C10.8045 9.23805 10.6536 9.27848 10.5 9.27848C10.3464 9.27848 10.1955 9.23805 10.0625 9.16125L4.375 5.25H16.625Z" fill="#1B6143"/>
</svg>
