<svg width="32" height="20" viewBox="0 0 32 20" fill="none" xmlns="http://www.w3.org/2000/svg">
<path fill-rule="evenodd" clip-rule="evenodd" d="M31.2467 1.38889C31.484 0.605556 31.2467 0.0361109 30.1967 0.0361109H26.7054C25.8247 0.0361109 25.418 0.534722 25.1807 1.06806C25.1807 1.06806 23.3847 5.62361 20.8767 8.57708C20.0634 9.43125 19.6907 9.71597 19.25 9.71597C19.0127 9.71597 18.7074 9.43125 18.7074 8.64861V1.35208C18.7074 0.427083 18.4367 0 17.6907 0H12.2C11.6573 0 11.3187 0.427084 11.3187 0.854167C11.3187 1.74375 12.5727 1.95764 12.708 4.44861V9.86111C12.708 11.0354 12.508 11.25 12.064 11.25C10.878 11.25 7.99734 6.65903 6.26934 1.42778C5.93334 0.391667 5.59201 0 4.71067 0H1.186C0.169334 0 0 0.497917 0 1.03194C0 1.99306 1.186 6.83264 5.52401 13.2382C8.40468 17.6132 12.5053 19.9646 16.1994 19.9646C18.4367 19.9646 18.7074 19.4306 18.7074 18.541V15.2312C18.7074 14.1639 18.9107 13.9861 19.6227 13.9861C20.1307 13.9861 21.046 14.2701 23.1134 16.3701C25.4854 18.8611 25.892 20 27.214 20H30.7047C31.7214 20 32.196 19.466 31.9247 18.434C31.62 17.4021 30.4674 15.9076 28.976 14.1285C28.1627 13.1326 26.9427 12.0292 26.57 11.4951C26.062 10.7833 26.1974 10.4986 26.57 9.85833C26.536 9.85833 30.8067 3.52361 31.2467 1.38611" fill="#1B6143"/>
</svg>
